REM DIRINDEX 1\2,1\3,1\4,1\5
REM DIRNAME cjc087,folder01,folder02,folder03,folder04
TITLE ""
FILE "Chapter_04.mp3" MP3
  TRACK 01 AUDIO
    TITLE "0:"
    INDEX 01 00:00:00
  TRACK 02 AUDIO
    TITLE "5:cjc087_0976"
    INDEX 01 00:00:09
  TRACK 03 AUDIO
    TITLE "0:"
    INDEX 01 00:01:64
  TRACK 04 AUDIO
    TITLE "5:cjc087_0977"
    INDEX 01 00:03:25
  TRACK 05 AUDIO
    TITLE "0:"
    INDEX 01 00:05:26
  TRACK 06 AUDIO
    TITLE "4:cjc087_0978"
    INDEX 01 00:06:24
  TRACK 07 AUDIO
    TITLE "3:cjc087_0979"
    INDEX 01 00:07:72
  TRACK 08 AUDIO
    TITLE "0:"
    INDEX 01 00:10:21
  TRACK 09 AUDIO
    TITLE "4:cjc087_0980"
    INDEX 01 00:11:17
  TRACK 10 AUDIO
    TITLE "3:cjc087_0981"
    INDEX 01 00:12:71
  TRACK 11 AUDIO
    TITLE "0:"
    INDEX 01 00:14:64
  TRACK 12 AUDIO
    TITLE "4:cjc087_0982"
    INDEX 01 00:15:64
  TRACK 13 AUDIO
    TITLE "3:cjc087_0983"
    INDEX 01 00:18:19
  TRACK 14 AUDIO
    TITLE "0:"
    INDEX 01 00:20:63
  TRACK 15 AUDIO
    TITLE "4:cjc087_0984"
    INDEX 01 00:21:60
  TRACK 16 AUDIO
    TITLE "3:cjc087_0985"
    INDEX 01 00:23:42
  TRACK 17 AUDIO
    TITLE "0:"
    INDEX 01 00:25:48
  TRACK 18 AUDIO
    TITLE "4:cjc087_0986"
    INDEX 01 00:26:46
  TRACK 19 AUDIO
    TITLE "3:cjc087_0987"
    INDEX 01 00:28:27
  TRACK 20 AUDIO
    TITLE "0:"
    INDEX 01 00:30:34
  TRACK 21 AUDIO
    TITLE "4:cjc087_0988"
    INDEX 01 00:31:33
  TRACK 22 AUDIO
    TITLE "3:cjc087_0989"
    INDEX 01 00:33:54
  TRACK 23 AUDIO
    TITLE "0:"
    INDEX 01 00:36:09
  TRACK 24 AUDIO
    TITLE "4:cjc087_0990"
    INDEX 01 00:37:07
  TRACK 25 AUDIO
    TITLE "3:cjc087_0991"
    INDEX 01 00:39:64
  TRACK 26 AUDIO
    TITLE "0:"
    INDEX 01 00:42:63
  TRACK 27 AUDIO
    TITLE "5:cjc087_0992"
    INDEX 01 00:44:24
  TRACK 28 AUDIO
    TITLE "0:"
    INDEX 01 00:46:29
  TRACK 29 AUDIO
    TITLE "4:cjc087_0993"
    INDEX 01 00:47:27
  TRACK 30 AUDIO
    TITLE "3:cjc087_0994"
    INDEX 01 00:50:23
  TRACK 31 AUDIO
    TITLE "0:"
    INDEX 01 00:53:27
  TRACK 32 AUDIO
    TITLE "4:cjc087_0995"
    INDEX 01 00:54:25
  TRACK 33 AUDIO
    TITLE "3:cjc087_0996"
    INDEX 01 00:56:45
  TRACK 34 AUDIO
    TITLE "0:"
    INDEX 01 00:58:58
  TRACK 35 AUDIO
    TITLE "4:cjc087_0997"
    INDEX 01 00:59:57
  TRACK 36 AUDIO
    TITLE "3:cjc087_0998"
    INDEX 01 01:01:64
  TRACK 37 AUDIO
    TITLE "0:"
    INDEX 01 01:04:45
  TRACK 38 AUDIO
    TITLE "4:cjc087_0999"
    INDEX 01 01:05:44
  TRACK 39 AUDIO
    TITLE "3:cjc087_1000"
    INDEX 01 01:07:37
  TRACK 40 AUDIO
    TITLE "0:"
    INDEX 01 01:09:28
  TRACK 41 AUDIO
    TITLE "4:cjc087_1001"
    INDEX 01 01:10:28
  TRACK 42 AUDIO
    TITLE "3:cjc087_1002"
    INDEX 01 01:12:09
  TRACK 43 AUDIO
    TITLE "0:"
    INDEX 01 01:14:41
  TRACK 44 AUDIO
    TITLE "4:cjc087_1003"
    INDEX 01 01:15:40
  TRACK 45 AUDIO
    TITLE "3:cjc087_1004"
    INDEX 01 01:17:69
  TRACK 46 AUDIO
    TITLE "0:"
    INDEX 01 01:20:14
  TRACK 47 AUDIO
    TITLE "4:cjc087_1005"
    INDEX 01 01:21:12
  TRACK 48 AUDIO
    TITLE "3:cjc087_1006"
    INDEX 01 01:25:15
  TRACK 49 AUDIO
    TITLE "0:"
    INDEX 01 01:27:32
  TRACK 50 AUDIO
    TITLE "2:cjc087_1007"
    INDEX 01 01:28:65
  TRACK 51 AUDIO
    TITLE "0:"
    INDEX 01 01:42:43
  TRACK 52 AUDIO
    TITLE "5:cjc087_1008"
    INDEX 01 01:44:13
  TRACK 53 AUDIO
    TITLE "0:"
    INDEX 01 01:46:16
  TRACK 54 AUDIO
    TITLE "4:cjc087_1009"
    INDEX 01 01:47:11
  TRACK 55 AUDIO
    TITLE "3:cjc087_1010"
    INDEX 01 01:50:49
  TRACK 56 AUDIO
    TITLE "0:"
    INDEX 01 01:52:67
  TRACK 57 AUDIO
    TITLE "4:cjc087_1011"
    INDEX 01 01:53:67
  TRACK 58 AUDIO
    TITLE "3:cjc087_1012"
    INDEX 01 01:57:13
  TRACK 59 AUDIO
    TITLE "0:"
    INDEX 01 02:00:63
  TRACK 60 AUDIO
    TITLE "4:cjc087_1013"
    INDEX 01 02:01:64
  TRACK 61 AUDIO
    TITLE "3:cjc087_1014"
    INDEX 01 02:04:10
  TRACK 62 AUDIO
    TITLE "0:"
    INDEX 01 02:06:63
  TRACK 63 AUDIO
    TITLE "4:cjc087_1015"
    INDEX 01 02:07:61
  TRACK 64 AUDIO
    TITLE "3:cjc087_1016"
    INDEX 01 02:10:22
  TRACK 65 AUDIO
    TITLE "0:"
    INDEX 01 02:13:03
  TRACK 66 AUDIO
    TITLE "4:cjc087_1017"
    INDEX 01 02:14:04
  TRACK 67 AUDIO
    TITLE "3:cjc087_1018"
    INDEX 01 02:15:52
  TRACK 68 AUDIO
    TITLE "0:"
    INDEX 01 02:17:49
  TRACK 69 AUDIO
    TITLE "4:cjc087_1019"
    INDEX 01 02:18:49
  TRACK 70 AUDIO
    TITLE "3:cjc087_1020"
    INDEX 01 02:20:40
  TRACK 71 AUDIO
    TITLE "0:"
    INDEX 01 02:23:11
  TRACK 72 AUDIO
    TITLE "4:cjc087_1021"
    INDEX 01 02:24:08
  TRACK 73 AUDIO
    TITLE "3:cjc087_1022"
    INDEX 01 02:26:62
  TRACK 74 AUDIO
    TITLE "0:"
    INDEX 01 02:29:49
  TRACK 75 AUDIO
    TITLE "5:cjc087_1023"
    INDEX 01 02:31:10
  TRACK 76 AUDIO
    TITLE "0:"
    INDEX 01 02:32:69
  TRACK 77 AUDIO
    TITLE "4:cjc087_1024"
    INDEX 01 02:33:64
  TRACK 78 AUDIO
    TITLE "3:cjc087_1025"
    INDEX 01 02:36:23
  TRACK 79 AUDIO
    TITLE "0:"
    INDEX 01 02:38:52
  TRACK 80 AUDIO
    TITLE "4:cjc087_1026"
    INDEX 01 02:39:49
  TRACK 81 AUDIO
    TITLE "3:cjc087_1027"
    INDEX 01 02:42:59
  TRACK 82 AUDIO
    TITLE "0:"
    INDEX 01 02:45:65
  TRACK 83 AUDIO
    TITLE "4:cjc087_1028"
    INDEX 01 02:46:63
  TRACK 84 AUDIO
    TITLE "3:cjc087_1029"
    INDEX 01 02:50:06
  TRACK 85 AUDIO
    TITLE "0:"
    INDEX 01 02:53:59
  TRACK 86 AUDIO
    TITLE "4:cjc087_1030"
    INDEX 01 02:54:56
  TRACK 87 AUDIO
    TITLE "3:cjc087_1031"
    INDEX 01 02:56:73
  TRACK 88 AUDIO
    TITLE "0:"
    INDEX 01 02:59:54
  TRACK 89 AUDIO
    TITLE "4:cjc087_1032"
    INDEX 01 03:00:53
  TRACK 90 AUDIO
    TITLE "3:cjc087_1033"
    INDEX 01 03:02:74
  TRACK 91 AUDIO
    TITLE "0:"
    INDEX 01 03:06:05
  TRACK 92 AUDIO
    TITLE "4:cjc087_1034"
    INDEX 01 03:07:04
  TRACK 93 AUDIO
    TITLE "3:cjc087_1035"
    INDEX 01 03:09:17
  TRACK 94 AUDIO
    TITLE "0:"
    INDEX 01 03:12:01
  TRACK 95 AUDIO
    TITLE "5:cjc087_1036"
    INDEX 01 03:13:38
  TRACK 96 AUDIO
    TITLE "0:"
    INDEX 01 03:15:37
  TRACK 97 AUDIO
    TITLE "4:cjc087_1037"
    INDEX 01 03:16:35
  TRACK 98 AUDIO
    TITLE "3:cjc087_1038"
    INDEX 01 03:18:00
  TRACK 99 AUDIO
    TITLE "0:"
    INDEX 01 03:19:43
  TRACK 100 AUDIO
    TITLE "4:cjc087_1039"
    INDEX 01 03:20:42
  TRACK 101 AUDIO
    TITLE "3:cjc087_1040"
    INDEX 01 03:22:12
  TRACK 102 AUDIO
    TITLE "0:"
    INDEX 01 03:23:70
  TRACK 103 AUDIO
    TITLE "4:cjc087_1041"
    INDEX 01 03:24:69
  TRACK 104 AUDIO
    TITLE "3:cjc087_1042"
    INDEX 01 03:26:39
  TRACK 105 AUDIO
    TITLE "0:"
    INDEX 01 03:28:20
  TRACK 106 AUDIO
    TITLE "4:cjc087_1043"
    INDEX 01 03:29:31
  TRACK 107 AUDIO
    TITLE "3:cjc087_1044"
    INDEX 01 03:31:42
  TRACK 108 AUDIO
    TITLE "0:"
    INDEX 01 03:33:74
  TRACK 109 AUDIO
    TITLE "4:cjc087_1045"
    INDEX 01 03:34:74
  TRACK 110 AUDIO
    TITLE "3:cjc087_1046"
    INDEX 01 03:36:63
  TRACK 111 AUDIO
    TITLE "0:"
    INDEX 01 03:38:71
  TRACK 112 AUDIO
    TITLE "4:cjc087_1047"
    INDEX 01 03:39:69
  TRACK 113 AUDIO
    TITLE "3:cjc087_1048"
    INDEX 01 03:41:50
  TRACK 114 AUDIO
    TITLE "0:"
    INDEX 01 03:43:27
  TRACK 115 AUDIO
    TITLE "5:cjc087_1049"
    INDEX 01 03:44:62
  TRACK 116 AUDIO
    TITLE "0:"
    INDEX 01 03:46:59
  TRACK 117 AUDIO
    TITLE "3:cjc087_1050"
    INDEX 01 03:47:57
  TRACK 118 AUDIO
    TITLE "4:cjc087_1051"
    INDEX 01 03:50:67
  TRACK 119 AUDIO
    TITLE "0:"
    INDEX 01 03:52:50
  TRACK 120 AUDIO
    TITLE "3:cjc087_1052"
    INDEX 01 03:53:49
  TRACK 121 AUDIO
    TITLE "4:cjc087_1053"
    INDEX 01 03:56:44
  TRACK 122 AUDIO
    TITLE "0:"
    INDEX 01 03:58:60
  TRACK 123 AUDIO
    TITLE "3:cjc087_1054"
    INDEX 01 03:59:66
  TRACK 124 AUDIO
    TITLE "4:cjc087_1055"
    INDEX 01 04:02:56
  TRACK 125 AUDIO
    TITLE "0:"
    INDEX 01 04:05:25
  TRACK 126 AUDIO
    TITLE "3:cjc087_1056"
    INDEX 01 04:06:25
  TRACK 127 AUDIO
    TITLE "4:cjc087_1057"
    INDEX 01 04:08:25
  TRACK 128 AUDIO
    TITLE "0:"
    INDEX 01 04:09:50
  TRACK 129 AUDIO
    TITLE "3:cjc087_1058"
    INDEX 01 04:10:46
  TRACK 130 AUDIO
    TITLE "4:cjc087_1059"
    INDEX 01 04:13:09
  TRACK 131 AUDIO
    TITLE "0:"
    INDEX 01 04:15:00
  TRACK 132 AUDIO
    TITLE "3:cjc087_1060"
    INDEX 01 04:16:00
  TRACK 133 AUDIO
    TITLE "4:cjc087_1061"
    INDEX 01 04:18:00
  TRACK 134 AUDIO
    TITLE "0:"
    INDEX 01 04:20:07
  TRACK 135 AUDIO
    TITLE "5:cjc087_1062"
    INDEX 01 04:21:40
  TRACK 136 AUDIO
    TITLE "0:"
    INDEX 01 04:23:35
  TRACK 137 AUDIO
    TITLE "4:cjc087_1063"
    INDEX 01 04:24:32
  TRACK 138 AUDIO
    TITLE "3:cjc087_1064"
    INDEX 01 04:29:43
  TRACK 139 AUDIO
    TITLE "0:"
    INDEX 01 04:33:16
  TRACK 140 AUDIO
    TITLE "4:cjc087_1065"
    INDEX 01 04:34:13
  TRACK 141 AUDIO
    TITLE "3:cjc087_1066"
    INDEX 01 04:35:56
  TRACK 142 AUDIO
    TITLE "0:"
    INDEX 01 04:37:55
  TRACK 143 AUDIO
    TITLE "4:cjc087_1067"
    INDEX 01 04:38:48
  TRACK 144 AUDIO
    TITLE "3:cjc087_1068"
    INDEX 01 04:41:03
  TRACK 145 AUDIO
    TITLE "0:"
    INDEX 01 04:43:36
  TRACK 146 AUDIO
    TITLE "4:cjc087_1069"
    INDEX 01 04:44:31
  TRACK 147 AUDIO
    TITLE "3:cjc087_1070"
    INDEX 01 04:46:20
  TRACK 148 AUDIO
    TITLE "0:"
    INDEX 01 04:48:05
  TRACK 149 AUDIO
    TITLE "4:cjc087_1071"
    INDEX 01 04:49:11
  TRACK 150 AUDIO
    TITLE "3:cjc087_1072"
    INDEX 01 04:50:57
  TRACK 151 AUDIO
    TITLE "0:"
    INDEX 01 04:52:60
  TRACK 152 AUDIO
    TITLE "4:cjc087_1073"
    INDEX 01 04:53:56
  TRACK 153 AUDIO
    TITLE "3:cjc087_1074"
    INDEX 01 04:56:21
  TRACK 154 AUDIO
    TITLE "0:"
    INDEX 01 04:58:59
  TRACK 155 AUDIO
    TITLE "4:cjc087_1075"
    INDEX 01 04:59:54
  TRACK 156 AUDIO
    TITLE "3:cjc087_1076"
    INDEX 01 05:01:49
  TRACK 157 AUDIO
    TITLE "0:"
    INDEX 01 05:04:12
  TRACK 158 AUDIO
    TITLE "5:cjc087_1077"
    INDEX 01 05:05:47
  TRACK 159 AUDIO
    TITLE "0:"
    INDEX 01 05:07:42
  TRACK 160 AUDIO
    TITLE "4:cjc087_1078"
    INDEX 01 05:08:37
  TRACK 161 AUDIO
    TITLE "3:cjc087_1079"
    INDEX 01 05:10:56
  TRACK 162 AUDIO
    TITLE "0:"
    INDEX 01 05:14:32
  TRACK 163 AUDIO
    TITLE "4:cjc087_1080"
    INDEX 01 05:15:30
  TRACK 164 AUDIO
    TITLE "3:cjc087_1081"
    INDEX 01 05:17:66
  TRACK 165 AUDIO
    TITLE "0:"
    INDEX 01 05:20:45
  TRACK 166 AUDIO
    TITLE "4:cjc087_1082"
    INDEX 01 05:21:42
  TRACK 167 AUDIO
    TITLE "3:cjc087_1083"
    INDEX 01 05:25:52
  TRACK 168 AUDIO
    TITLE "0:"
    INDEX 01 05:28:58
  TRACK 169 AUDIO
    TITLE "4:cjc087_1084"
    INDEX 01 05:29:49
  TRACK 170 AUDIO
    TITLE "3:cjc087_1085"
    INDEX 01 05:32:01
  TRACK 171 AUDIO
    TITLE "0:"
    INDEX 01 05:34:29
  TRACK 172 AUDIO
    TITLE "4:cjc087_1086"
    INDEX 01 05:35:27
  TRACK 173 AUDIO
    TITLE "3:cjc087_1087"
    INDEX 01 05:37:72
  TRACK 174 AUDIO
    TITLE "0:"
    INDEX 01 05:40:39
  TRACK 175 AUDIO
    TITLE "4:cjc087_1088"
    INDEX 01 05:41:41
  TRACK 176 AUDIO
    TITLE "3:cjc087_1089"
    INDEX 01 05:43:20
  TRACK 177 AUDIO
    TITLE "0:"
    INDEX 01 05:46:26
  TRACK 178 AUDIO
    TITLE "4:cjc087_1090"
    INDEX 01 05:47:28
  TRACK 179 AUDIO
    TITLE "3:cjc087_1091"
    INDEX 01 05:50:03
  TRACK 180 AUDIO
    TITLE "0:"
    INDEX 01 05:52:56
  TRACK 181 AUDIO
    TITLE "2:cjc087_1092"
    INDEX 01 05:54:20
  TRACK 182 AUDIO
    TITLE "0:"
    INDEX 01 06:01:71
  TRACK 183 AUDIO
    TITLE "5:cjc087_1093"
    INDEX 01 06:03:31
  TRACK 184 AUDIO
    TITLE "0:"
    INDEX 01 06:05:26
  TRACK 185 AUDIO
    TITLE "4:cjc087_1094"
    INDEX 01 06:06:23
  TRACK 186 AUDIO
    TITLE "3:cjc087_1095"
    INDEX 01 06:07:48
  TRACK 187 AUDIO
    TITLE "0:"
    INDEX 01 06:10:01
  TRACK 188 AUDIO
    TITLE "4:cjc087_1096"
    INDEX 01 06:11:01
  TRACK 189 AUDIO
    TITLE "3:cjc087_1097"
    INDEX 01 06:12:45
  TRACK 190 AUDIO
    TITLE "0:"
    INDEX 01 06:14:68
  TRACK 191 AUDIO
    TITLE "4:cjc087_1098"
    INDEX 01 06:15:65
  TRACK 192 AUDIO
    TITLE "3:cjc087_1099"
    INDEX 01 06:17:39
  TRACK 193 AUDIO
    TITLE "0:"
    INDEX 01 06:19:16
  TRACK 194 AUDIO
    TITLE "4:cjc087_1100"
    INDEX 01 06:20:15
  TRACK 195 AUDIO
    TITLE "3:cjc087_1101"
    INDEX 01 06:22:20
  TRACK 196 AUDIO
    TITLE "0:"
    INDEX 01 06:24:33
  TRACK 197 AUDIO
    TITLE "4:cjc087_1102"
    INDEX 01 06:25:30
  TRACK 198 AUDIO
    TITLE "3:cjc087_1103"
    INDEX 01 06:28:21
  TRACK 199 AUDIO
    TITLE "0:"
    INDEX 01 06:31:05
  TRACK 200 AUDIO
    TITLE "4:cjc087_1104"
    INDEX 01 06:32:03
  TRACK 201 AUDIO
    TITLE "3:cjc087_1105"
    INDEX 01 06:33:73
  TRACK 202 AUDIO
    TITLE "0:"
    INDEX 01 06:35:56
  TRACK 203 AUDIO
    TITLE "4:cjc087_1106"
    INDEX 01 06:36:56
  TRACK 204 AUDIO
    TITLE "3:cjc087_1107"
    INDEX 01 06:38:29
  TRACK 205 AUDIO
    TITLE "0:"
    INDEX 01 06:40:26
  TRACK 206 AUDIO
    TITLE "5:cjc087_1108"
    INDEX 01 06:41:59
  TRACK 207 AUDIO
    TITLE "0:"
    INDEX 01 06:43:62
  TRACK 208 AUDIO
    TITLE "4:cjc087_1109"
    INDEX 01 06:44:53
  TRACK 209 AUDIO
    TITLE "3:cjc087_1110"
    INDEX 01 06:46:58
  TRACK 210 AUDIO
    TITLE "0:"
    INDEX 01 06:48:67
  TRACK 211 AUDIO
    TITLE "4:cjc087_1111"
    INDEX 01 06:49:66
  TRACK 212 AUDIO
    TITLE "3:cjc087_1112"
    INDEX 01 06:52:17
  TRACK 213 AUDIO
    TITLE "0:"
    INDEX 01 06:54:22
  TRACK 214 AUDIO
    TITLE "4:cjc087_1113"
    INDEX 01 06:55:20
  TRACK 215 AUDIO
    TITLE "3:cjc087_1114"
    INDEX 01 06:57:56
  TRACK 216 AUDIO
    TITLE "0:"
    INDEX 01 07:00:19
  TRACK 217 AUDIO
    TITLE "4:cjc087_1115"
    INDEX 01 07:01:16
  TRACK 218 AUDIO
    TITLE "3:cjc087_1116"
    INDEX 01 07:03:49
  TRACK 219 AUDIO
    TITLE "0:"
    INDEX 01 07:06:39
  TRACK 220 AUDIO
    TITLE "4:cjc087_1117"
    INDEX 01 07:07:39
  TRACK 221 AUDIO
    TITLE "3:cjc087_1118"
    INDEX 01 07:09:35
  TRACK 222 AUDIO
    TITLE "0:"
    INDEX 01 07:11:50
  TRACK 223 AUDIO
    TITLE "4:cjc087_1119"
    INDEX 01 07:12:48
  TRACK 224 AUDIO
    TITLE "3:cjc087_1120"
    INDEX 01 07:14:33
  TRACK 225 AUDIO
    TITLE "0:"
    INDEX 01 07:18:54
  TRACK 226 AUDIO
    TITLE "4:cjc087_1121"
    INDEX 01 07:19:51
  TRACK 227 AUDIO
    TITLE "3:cjc087_1122"
    INDEX 01 07:21:15
  TRACK 228 AUDIO
    TITLE "0:"
    INDEX 01 07:23:26
  TRACK 229 AUDIO
    TITLE "5:cjc087_1123"
    INDEX 01 07:24:62
  TRACK 230 AUDIO
    TITLE "0:"
    INDEX 01 07:26:61
  TRACK 231 AUDIO
    TITLE "4:cjc087_1124"
    INDEX 01 07:27:57
  TRACK 232 AUDIO
    TITLE "3:cjc087_1125"
    INDEX 01 07:29:17
  TRACK 233 AUDIO
    TITLE "0:"
    INDEX 01 07:31:35
  TRACK 234 AUDIO
    TITLE "4:cjc087_1126"
    INDEX 01 07:32:33
  TRACK 235 AUDIO
    TITLE "3:cjc087_1127"
    INDEX 01 07:34:73
  TRACK 236 AUDIO
    TITLE "0:"
    INDEX 01 07:37:63
  TRACK 237 AUDIO
    TITLE "4:cjc087_1128"
    INDEX 01 07:38:63
  TRACK 238 AUDIO
    TITLE "3:cjc087_1129"
    INDEX 01 07:40:65
  TRACK 239 AUDIO
    TITLE "0:"
    INDEX 01 07:42:58
  TRACK 240 AUDIO
    TITLE "4:cjc087_1130"
    INDEX 01 07:43:58
  TRACK 241 AUDIO
    TITLE "3:cjc087_1131"
    INDEX 01 07:45:63
  TRACK 242 AUDIO
    TITLE "0:"
    INDEX 01 07:48:18
  TRACK 243 AUDIO
    TITLE "4:cjc087_1132"
    INDEX 01 07:49:15
  TRACK 244 AUDIO
    TITLE "3:cjc087_1133"
    INDEX 01 07:51:34
  TRACK 245 AUDIO
    TITLE "0:"
    INDEX 01 07:55:02
  TRACK 246 AUDIO
    TITLE "4:cjc087_1134"
    INDEX 01 07:56:00
  TRACK 247 AUDIO
    TITLE "3:cjc087_1135"
    INDEX 01 08:00:35
  TRACK 248 AUDIO
    TITLE "0:"
    INDEX 01 08:02:47
  TRACK 249 AUDIO
    TITLE "5:cjc087_1136"
    INDEX 01 08:04:07
  TRACK 250 AUDIO
    TITLE "0:"
    INDEX 01 08:06:10
  TRACK 251 AUDIO
    TITLE "4:cjc087_1137"
    INDEX 01 08:07:07
  TRACK 252 AUDIO
    TITLE "3:cjc087_1138"
    INDEX 01 08:08:60
  TRACK 253 AUDIO
    TITLE "0:"
    INDEX 01 08:11:13
  TRACK 254 AUDIO
    TITLE "4:cjc087_1139"
    INDEX 01 08:12:09
  TRACK 255 AUDIO
    TITLE "3:cjc087_1140"
    INDEX 01 08:14:06
  TRACK 256 AUDIO
    TITLE "0:"
    INDEX 01 08:16:24
  TRACK 257 AUDIO
    TITLE "4:cjc087_1141"
    INDEX 01 08:17:20
  TRACK 258 AUDIO
    TITLE "3:cjc087_1142"
    INDEX 01 08:18:68
  TRACK 259 AUDIO
    TITLE "0:"
    INDEX 01 08:20:57
  TRACK 260 AUDIO
    TITLE "4:cjc087_1143"
    INDEX 01 08:21:55
  TRACK 261 AUDIO
    TITLE "3:cjc087_1144"
    INDEX 01 08:23:30
  TRACK 262 AUDIO
    TITLE "0:"
    INDEX 01 08:25:29
  TRACK 263 AUDIO
    TITLE "4:cjc087_1145"
    INDEX 01 08:26:24
  TRACK 264 AUDIO
    TITLE "3:cjc087_1146"
    INDEX 01 08:28:23
  TRACK 265 AUDIO
    TITLE "0:"
    INDEX 01 08:30:24
  TRACK 266 AUDIO
    TITLE "4:cjc087_1147"
    INDEX 01 08:31:37
  TRACK 267 AUDIO
    TITLE "3:cjc087_1148"
    INDEX 01 08:37:50
  TRACK 268 AUDIO
    TITLE "0:"
    INDEX 01 08:40:32
  TRACK 269 AUDIO
    TITLE "4:cjc087_1149"
    INDEX 01 08:41:30
  TRACK 270 AUDIO
    TITLE "3:cjc087_1150"
    INDEX 01 08:43:11
  TRACK 271 AUDIO
    TITLE "0:"
    INDEX 01 08:45:00
  TRACK 272 AUDIO
    TITLE "5:cjc087_1151"
    INDEX 01 08:46:37
  TRACK 273 AUDIO
    TITLE "0:"
    INDEX 01 08:48:34
  TRACK 274 AUDIO
    TITLE "4:cjc087_1152"
    INDEX 01 08:49:29
  TRACK 275 AUDIO
    TITLE "3:cjc087_1153"
    INDEX 01 08:52:22
  TRACK 276 AUDIO
    TITLE "0:"
    INDEX 01 08:55:18
  TRACK 277 AUDIO
    TITLE "4:cjc087_1154"
    INDEX 01 08:56:14
  TRACK 278 AUDIO
    TITLE "3:cjc087_1155"
    INDEX 01 08:58:66
  TRACK 279 AUDIO
    TITLE "0:"
    INDEX 01 09:01:15
  TRACK 280 AUDIO
    TITLE "4:cjc087_1156"
    INDEX 01 09:02:12
  TRACK 281 AUDIO
    TITLE "3:cjc087_1157"
    INDEX 01 09:03:67
  TRACK 282 AUDIO
    TITLE "0:"
    INDEX 01 09:06:14
  TRACK 283 AUDIO
    TITLE "4:cjc087_1158"
    INDEX 01 09:07:12
  TRACK 284 AUDIO
    TITLE "3:cjc087_1159"
    INDEX 01 09:09:05
  TRACK 285 AUDIO
    TITLE "0:"
    INDEX 01 09:11:39
  TRACK 286 AUDIO
    TITLE "4:cjc087_1160"
    INDEX 01 09:12:36
  TRACK 287 AUDIO
    TITLE "3:cjc087_1161"
    INDEX 01 09:13:69
  TRACK 288 AUDIO
    TITLE "0:"
    INDEX 01 09:15:62
  TRACK 289 AUDIO
    TITLE "4:cjc087_1162"
    INDEX 01 09:16:61
  TRACK 290 AUDIO
    TITLE "3:cjc087_1163"
    INDEX 01 09:19:42
  TRACK 291 AUDIO
    TITLE "0:"
    INDEX 01 09:22:54
  TRACK 292 AUDIO
    TITLE "4:cjc087_1164"
    INDEX 01 09:23:52
  TRACK 293 AUDIO
    TITLE "3:cjc087_1165"
    INDEX 01 09:26:09
  TRACK 294 AUDIO
    TITLE "0:"
    INDEX 01 09:28:51
  TRACK 295 AUDIO
    TITLE "5:cjc087_1166"
    INDEX 01 09:30:13
  TRACK 296 AUDIO
    TITLE "0:"
    INDEX 01 09:31:69
  TRACK 297 AUDIO
    TITLE "4:cjc087_1167"
    INDEX 01 09:32:66
  TRACK 298 AUDIO
    TITLE "3:cjc087_1168"
    INDEX 01 09:35:31
  TRACK 299 AUDIO
    TITLE "0:"
    INDEX 01 09:38:40
  TRACK 300 AUDIO
    TITLE "4:cjc087_1169"
    INDEX 01 09:39:39
  TRACK 301 AUDIO
    TITLE "3:cjc087_1170"
    INDEX 01 09:42:02
  TRACK 302 AUDIO
    TITLE "0:"
    INDEX 01 09:44:44
  TRACK 303 AUDIO
    TITLE "4:cjc087_1171"
    INDEX 01 09:45:42
  TRACK 304 AUDIO
    TITLE "3:cjc087_1172"
    INDEX 01 09:47:60
  TRACK 305 AUDIO
    TITLE "0:"
    INDEX 01 09:50:49
  TRACK 306 AUDIO
    TITLE "4:cjc087_1173"
    INDEX 01 09:51:50
  TRACK 307 AUDIO
    TITLE "3:cjc087_1174"
    INDEX 01 09:54:17
  TRACK 308 AUDIO
    TITLE "0:"
    INDEX 01 09:56:67
  TRACK 309 AUDIO
    TITLE "4:cjc087_1175"
    INDEX 01 09:57:64
  TRACK 310 AUDIO
    TITLE "3:cjc087_1176"
    INDEX 01 09:59:50
  TRACK 311 AUDIO
    TITLE "0:"
    INDEX 01 10:02:11
  TRACK 312 AUDIO
    TITLE "4:cjc087_1177"
    INDEX 01 10:03:10
  TRACK 313 AUDIO
    TITLE "3:cjc087_1178"
    INDEX 01 10:06:20
  TRACK 314 AUDIO
    TITLE "0:"
    INDEX 01 10:08:50
  TRACK 315 AUDIO
    TITLE "4:cjc087_1179"
    INDEX 01 10:09:50
  TRACK 316 AUDIO
    TITLE "3:cjc087_1180"
    INDEX 01 10:11:25
  TRACK 317 AUDIO
    TITLE "0:"
    INDEX 01 10:13:50
  TRACK 318 AUDIO
    TITLE "2:cjc087_1181"
    INDEX 01 10:15:11
  TRACK 319 AUDIO
    TITLE "0:"
    INDEX 01 10:23:66
  TRACK 320 AUDIO
    TITLE "5:cjc087_1182"
    INDEX 01 10:25:31
  TRACK 321 AUDIO
    TITLE "0:"
    INDEX 01 10:27:36
  TRACK 322 AUDIO
    TITLE "4:cjc087_1183"
    INDEX 01 10:28:32
  TRACK 323 AUDIO
    TITLE "3:cjc087_1184"
    INDEX 01 10:30:23
  TRACK 324 AUDIO
    TITLE "0:"
    INDEX 01 10:32:16
  TRACK 325 AUDIO
    TITLE "4:cjc087_1185"
    INDEX 01 10:33:13
  TRACK 326 AUDIO
    TITLE "3:cjc087_1186"
    INDEX 01 10:35:02
  TRACK 327 AUDIO
    TITLE "0:"
    INDEX 01 10:37:27
  TRACK 328 AUDIO
    TITLE "4:cjc087_1187"
    INDEX 01 10:38:24
  TRACK 329 AUDIO
    TITLE "3:cjc087_1188"
    INDEX 01 10:41:13
  TRACK 330 AUDIO
    TITLE "0:"
    INDEX 01 10:44:15
  TRACK 331 AUDIO
    TITLE "4:cjc087_1189"
    INDEX 01 10:45:14
  TRACK 332 AUDIO
    TITLE "3:cjc087_1190"
    INDEX 01 10:47:60
  TRACK 333 AUDIO
    TITLE "0:"
    INDEX 01 10:50:04
  TRACK 334 AUDIO
    TITLE "4:cjc087_1191"
    INDEX 01 10:51:03
  TRACK 335 AUDIO
    TITLE "3:cjc087_1192"
    INDEX 01 10:53:30
  TRACK 336 AUDIO
    TITLE "0:"
    INDEX 01 10:55:34
  TRACK 337 AUDIO
    TITLE "4:cjc087_1193"
    INDEX 01 10:56:28
  TRACK 338 AUDIO
    TITLE "3:cjc087_1194"
    INDEX 01 10:58:25
  TRACK 339 AUDIO
    TITLE "0:"
    INDEX 01 11:01:25
  TRACK 340 AUDIO
    TITLE "4:cjc087_1195"
    INDEX 01 11:02:25
  TRACK 341 AUDIO
    TITLE "3:cjc087_1196"
    INDEX 01 11:04:55
  TRACK 342 AUDIO
    TITLE "0:"
    INDEX 01 11:06:73
  TRACK 343 AUDIO
    TITLE "5:cjc087_1197"
    INDEX 01 11:08:33
  TRACK 344 AUDIO
    TITLE "0:"
    INDEX 01 11:10:22
  TRACK 345 AUDIO
    TITLE "4:cjc087_1198"
    INDEX 01 11:11:20
  TRACK 346 AUDIO
    TITLE "3:cjc087_1199"
    INDEX 01 11:15:00
  TRACK 347 AUDIO
    TITLE "0:"
    INDEX 01 11:19:64
  TRACK 348 AUDIO
    TITLE "4:cjc087_1200"
    INDEX 01 11:21:04
  TRACK 349 AUDIO
    TITLE "3:cjc087_1201"
    INDEX 01 11:23:13
  TRACK 350 AUDIO
    TITLE "0:"
    INDEX 01 11:25:37
  TRACK 351 AUDIO
    TITLE "4:cjc087_1202"
    INDEX 01 11:26:37
  TRACK 352 AUDIO
    TITLE "3:cjc087_1203"
    INDEX 01 11:28:57
  TRACK 353 AUDIO
    TITLE "0:"
    INDEX 01 11:31:30
  TRACK 354 AUDIO
    TITLE "4:cjc087_1204"
    INDEX 01 11:32:26
  TRACK 355 AUDIO
    TITLE "3:cjc087_1205"
    INDEX 01 11:33:53
  TRACK 356 AUDIO
    TITLE "0:"
    INDEX 01 11:35:34
  TRACK 357 AUDIO
    TITLE "4:cjc087_1206"
    INDEX 01 11:36:33
  TRACK 358 AUDIO
    TITLE "3:cjc087_1207"
    INDEX 01 11:38:38
  TRACK 359 AUDIO
    TITLE "0:"
    INDEX 01 11:41:11
  TRACK 360 AUDIO
    TITLE "4:cjc087_1208"
    INDEX 01 11:42:10
  TRACK 361 AUDIO
    TITLE "3:cjc087_1209"
    INDEX 01 11:45:03
  TRACK 362 AUDIO
    TITLE "0:"
    INDEX 01 11:47:39
  TRACK 363 AUDIO
    TITLE "4:cjc087_1210"
    INDEX 01 11:48:36
  TRACK 364 AUDIO
    TITLE "3:cjc087_1211"
    INDEX 01 11:50:39
  TRACK 365 AUDIO
    TITLE "0:"
    INDEX 01 11:53:30
  TRACK 366 AUDIO
    TITLE "5:cjc087_1212"
    INDEX 01 11:54:66
  TRACK 367 AUDIO
    TITLE "0:"
    INDEX 01 11:56:60
  TRACK 368 AUDIO
    TITLE "4:cjc087_1213"
    INDEX 01 11:57:53
  TRACK 369 AUDIO
    TITLE "3:cjc087_1214"
    INDEX 01 12:00:08
  TRACK 370 AUDIO
    TITLE "0:"
    INDEX 01 12:02:21
  TRACK 371 AUDIO
    TITLE "4:cjc087_1215"
    INDEX 01 12:03:18
  TRACK 372 AUDIO
    TITLE "3:cjc087_1216"
    INDEX 01 12:05:06
  TRACK 373 AUDIO
    TITLE "0:"
    INDEX 01 12:07:44
  TRACK 374 AUDIO
    TITLE "4:cjc087_1217"
    INDEX 01 12:08:41
  TRACK 375 AUDIO
    TITLE "3:cjc087_1218"
    INDEX 01 12:10:40
  TRACK 376 AUDIO
    TITLE "0:"
    INDEX 01 12:12:37
  TRACK 377 AUDIO
    TITLE "4:cjc087_1219"
    INDEX 01 12:13:36
  TRACK 378 AUDIO
    TITLE "3:cjc087_1220"
    INDEX 01 12:15:27
  TRACK 379 AUDIO
    TITLE "0:"
    INDEX 01 12:18:08
  TRACK 380 AUDIO
    TITLE "4:cjc087_1221"
    INDEX 01 12:19:06
  TRACK 381 AUDIO
    TITLE "3:cjc087_1222"
    INDEX 01 12:21:16
  TRACK 382 AUDIO
    TITLE "0:"
    INDEX 01 12:23:41
  TRACK 383 AUDIO
    TITLE "4:cjc087_1223"
    INDEX 01 12:24:40
  TRACK 384 AUDIO
    TITLE "3:cjc087_1224"
    INDEX 01 12:26:41
  TRACK 385 AUDIO
    TITLE "0:"
    INDEX 01 12:29:04
  TRACK 386 AUDIO
    TITLE "4:cjc087_1225"
    INDEX 01 12:30:02
  TRACK 387 AUDIO
    TITLE "3:cjc087_1226"
    INDEX 01 12:32:16
  TRACK 388 AUDIO
    TITLE "0:"
    INDEX 01 12:34:46
  TRACK 389 AUDIO
    TITLE "5:cjc087_1227"
    INDEX 01 12:36:08
  TRACK 390 AUDIO
    TITLE "0:"
    INDEX 01 12:38:03
  TRACK 391 AUDIO
    TITLE "3:cjc087_1228"
    INDEX 01 12:39:01
  TRACK 392 AUDIO
    TITLE "4:cjc087_1229"
    INDEX 01 12:40:67
  TRACK 393 AUDIO
    TITLE "0:"
    INDEX 01 12:42:22
  TRACK 394 AUDIO
    TITLE "3:cjc087_1230"
    INDEX 01 12:43:20
  TRACK 395 AUDIO
    TITLE "4:cjc087_1231"
    INDEX 01 12:49:28
  TRACK 396 AUDIO
    TITLE "0:"
    INDEX 01 12:51:02
  TRACK 397 AUDIO
    TITLE "3:cjc087_1232"
    INDEX 01 12:51:74
  TRACK 398 AUDIO
    TITLE "4:cjc087_1233"
    INDEX 01 12:53:46
  TRACK 399 AUDIO
    TITLE "0:"
    INDEX 01 12:55:05
  TRACK 400 AUDIO
    TITLE "3:cjc087_1234"
    INDEX 01 12:56:05
  TRACK 401 AUDIO
    TITLE "4:cjc087_1235"
    INDEX 01 12:58:51
  TRACK 402 AUDIO
    TITLE "0:"
    INDEX 01 13:01:10
  TRACK 403 AUDIO
    TITLE "3:cjc087_1236"
    INDEX 01 13:02:09
  TRACK 404 AUDIO
    TITLE "4:cjc087_1237"
    INDEX 01 13:04:16
  TRACK 405 AUDIO
    TITLE "0:"
    INDEX 01 13:06:33
  TRACK 406 AUDIO
    TITLE "5:cjc087_1238"
    INDEX 01 13:07:69
  TRACK 407 AUDIO
    TITLE "0:"
    INDEX 01 13:09:62
  TRACK 408 AUDIO
    TITLE "4:cjc087_1239"
    INDEX 01 13:10:58
  TRACK 409 AUDIO
    TITLE "3:cjc087_1240"
    INDEX 01 13:13:31
  TRACK 410 AUDIO
    TITLE "0:"
    INDEX 01 13:18:59
  TRACK 411 AUDIO
    TITLE "4:cjc087_1241"
    INDEX 01 13:19:59
  TRACK 412 AUDIO
    TITLE "3:cjc087_1242"
    INDEX 01 13:21:36
  TRACK 413 AUDIO
    TITLE "0:"
    INDEX 01 13:23:21
  TRACK 414 AUDIO
    TITLE "4:cjc087_1243"
    INDEX 01 13:24:21
  TRACK 415 AUDIO
    TITLE "3:cjc087_1244"
    INDEX 01 13:28:66
  TRACK 416 AUDIO
    TITLE "0:"
    INDEX 01 13:33:10
  TRACK 417 AUDIO
    TITLE "4:cjc087_1245"
    INDEX 01 13:34:07
  TRACK 418 AUDIO
    TITLE "3:cjc087_1246"
    INDEX 01 13:35:60
  TRACK 419 AUDIO
    TITLE "0:"
    INDEX 01 13:37:67
  TRACK 420 AUDIO
    TITLE "4:cjc087_1247"
    INDEX 01 13:38:66
  TRACK 421 AUDIO
    TITLE "3:cjc087_1248"
    INDEX 01 13:40:47
  TRACK 422 AUDIO
    TITLE "0:"
    INDEX 01 13:42:40
  TRACK 423 AUDIO
    TITLE "4:cjc087_1249"
    INDEX 01 13:43:38
  TRACK 424 AUDIO
    TITLE "3:cjc087_1250"
    INDEX 01 13:45:25
  TRACK 425 AUDIO
    TITLE "0:"
    INDEX 01 13:47:28
  TRACK 426 AUDIO
    TITLE "4:cjc087_1251"
    INDEX 01 13:48:23
  TRACK 427 AUDIO
    TITLE "3:cjc087_1252"
    INDEX 01 13:50:05
  TRACK 428 AUDIO
    TITLE "0:"
    INDEX 01 13:52:25
  TRACK 429 AUDIO
    TITLE "5:cjc087_1253"
    INDEX 01 13:53:62
  TRACK 430 AUDIO
    TITLE "0:"
    INDEX 01 13:55:61
  TRACK 431 AUDIO
    TITLE "4:cjc087_1254"
    INDEX 01 13:56:56
  TRACK 432 AUDIO
    TITLE "3:cjc087_1255"
    INDEX 01 13:58:49
  TRACK 433 AUDIO
    TITLE "0:"
    INDEX 01 14:01:36
  TRACK 434 AUDIO
    TITLE "4:cjc087_1256"
    INDEX 01 14:02:33
  TRACK 435 AUDIO
    TITLE "3:cjc087_1257"
    INDEX 01 14:04:50
  TRACK 436 AUDIO
    TITLE "0:"
    INDEX 01 14:07:56
  TRACK 437 AUDIO
    TITLE "4:cjc087_1258"
    INDEX 01 14:08:53
  TRACK 438 AUDIO
    TITLE "3:cjc087_1259"
    INDEX 01 14:10:70
  TRACK 439 AUDIO
    TITLE "0:"
    INDEX 01 14:13:74
  TRACK 440 AUDIO
    TITLE "4:cjc087_1260"
    INDEX 01 14:14:72
  TRACK 441 AUDIO
    TITLE "3:cjc087_1261"
    INDEX 01 14:17:09
  TRACK 442 AUDIO
    TITLE "0:"
    INDEX 01 14:19:63
  TRACK 443 AUDIO
    TITLE "4:cjc087_1262"
    INDEX 01 14:20:62
  TRACK 444 AUDIO
    TITLE "3:cjc087_1263"
    INDEX 01 14:23:06
  TRACK 445 AUDIO
    TITLE "0:"
    INDEX 01 14:25:62
  TRACK 446 AUDIO
    TITLE "4:cjc087_1264"
    INDEX 01 14:26:59
  TRACK 447 AUDIO
    TITLE "3:cjc087_1265"
    INDEX 01 14:29:34
  TRACK 448 AUDIO
    TITLE "0:"
    INDEX 01 14:33:02
  TRACK 449 AUDIO
    TITLE "4:cjc087_1266"
    INDEX 01 14:34:00
  TRACK 450 AUDIO
    TITLE "3:cjc087_1267"
    INDEX 01 14:36:14
  TRACK 451 AUDIO
    TITLE "0:"
    INDEX 01 14:39:13
  TRACK 452 AUDIO
    TITLE "2:cjc087_1268"
    INDEX 01 14:40:46
  TRACK 453 AUDIO
    TITLE "0:"
    INDEX 01 14:58:43
  TRACK 454 AUDIO
    TITLE "5:cjc087_1269"
    INDEX 01 15:00:01
  TRACK 455 AUDIO
    TITLE "0:"
    INDEX 01 15:02:00
  TRACK 456 AUDIO
    TITLE "4:cjc087_1270"
    INDEX 01 15:02:69
  TRACK 457 AUDIO
    TITLE "3:cjc087_1271"
    INDEX 01 15:06:25
  TRACK 458 AUDIO
    TITLE "0:"
    INDEX 01 15:09:53
  TRACK 459 AUDIO
    TITLE "4:cjc087_1272"
    INDEX 01 15:10:53
  TRACK 460 AUDIO
    TITLE "3:cjc087_1273"
    INDEX 01 15:13:08
  TRACK 461 AUDIO
    TITLE "0:"
    INDEX 01 15:15:71
  TRACK 462 AUDIO
    TITLE "4:cjc087_1274"
    INDEX 01 15:16:67
  TRACK 463 AUDIO
    TITLE "3:cjc087_1275"
    INDEX 01 15:19:28
  TRACK 464 AUDIO
    TITLE "0:"
    INDEX 01 15:21:64
  TRACK 465 AUDIO
    TITLE "4:cjc087_1276"
    INDEX 01 15:22:64
  TRACK 466 AUDIO
    TITLE "3:cjc087_1277"
    INDEX 01 15:26:18
  TRACK 467 AUDIO
    TITLE "0:"
    INDEX 01 15:30:12
  TRACK 468 AUDIO
    TITLE "4:cjc087_1278"
    INDEX 01 15:31:10
  TRACK 469 AUDIO
    TITLE "3:cjc087_1279"
    INDEX 01 15:32:70
  TRACK 470 AUDIO
    TITLE "0:"
    INDEX 01 15:34:65
  TRACK 471 AUDIO
    TITLE "4:cjc087_1280"
    INDEX 01 15:35:66
  TRACK 472 AUDIO
    TITLE "3:cjc087_1281"
    INDEX 01 15:37:36
  TRACK 473 AUDIO
    TITLE "0:"
    INDEX 01 15:39:52
  TRACK 474 AUDIO
    TITLE "4:cjc087_1282"
    INDEX 01 15:40:46
  TRACK 475 AUDIO
    TITLE "3:cjc087_1283"
    INDEX 01 15:42:21
  TRACK 476 AUDIO
    TITLE "0:"
    INDEX 01 15:44:40
  TRACK 477 AUDIO
    TITLE "5:cjc087_1284"
    INDEX 01 15:46:01
  TRACK 478 AUDIO
    TITLE "0:"
    INDEX 01 15:48:04
  TRACK 479 AUDIO
    TITLE "3:cjc087_1285"
    INDEX 01 15:49:02
  TRACK 480 AUDIO
    TITLE "4:cjc087_1286"
    INDEX 01 15:51:53
  TRACK 481 AUDIO
    TITLE "0:"
    INDEX 01 15:54:15
  TRACK 482 AUDIO
    TITLE "3:cjc087_1287"
    INDEX 01 15:55:08
  TRACK 483 AUDIO
    TITLE "4:cjc087_1288"
    INDEX 01 15:57:23
  TRACK 484 AUDIO
    TITLE "0:"
    INDEX 01 15:59:06
  TRACK 485 AUDIO
    TITLE "3:cjc087_1289"
    INDEX 01 16:00:05
  TRACK 486 AUDIO
    TITLE "4:cjc087_1290"
    INDEX 01 16:02:28
  TRACK 487 AUDIO
    TITLE "0:"
    INDEX 01 16:04:35
  TRACK 488 AUDIO
    TITLE "3:cjc087_1291"
    INDEX 01 16:05:32
  TRACK 489 AUDIO
    TITLE "4:cjc087_1292"
    INDEX 01 16:08:24
  TRACK 490 AUDIO
    TITLE "0:"
    INDEX 01 16:10:51
  TRACK 491 AUDIO
    TITLE "3:cjc087_1293"
    INDEX 01 16:11:50
  TRACK 492 AUDIO
    TITLE "4:cjc087_1294"
    INDEX 01 16:15:50
  TRACK 493 AUDIO
    TITLE "0:"
    INDEX 01 16:18:15
  TRACK 494 AUDIO
    TITLE "3:cjc087_1295"
    INDEX 01 16:19:13
  TRACK 495 AUDIO
    TITLE "4:cjc087_1296"
    INDEX 01 16:21:55
  TRACK 496 AUDIO
    TITLE "0:"
    INDEX 01 16:23:53
  TRACK 497 AUDIO
    TITLE "3:cjc087_1297"
    INDEX 01 16:24:51
  TRACK 498 AUDIO
    TITLE "4:cjc087_1298"
    INDEX 01 16:27:63
  TRACK 499 AUDIO
    TITLE "0:"
    INDEX 01 16:30:05
  TRACK 500 AUDIO
    TITLE "3:cjc087_1299"
    INDEX 01 16:31:02
  TRACK 501 AUDIO
    TITLE "4:cjc087_1300"
    INDEX 01 16:32:43
  TRACK 502 AUDIO
    TITLE "0:"
    INDEX 01 16:34:02
